<svg width="14" height="14" viewBox="0 0 14 14" xmlns="http://www.w3.org/2000/svg">
<path d="M12.4688 7.875V11.375C12.4688 11.549 12.3996 11.716 12.2765 11.839C12.1535 11.9621 11.9865 12.0312 11.8125 12.0312H2.1875C2.01345 12.0312 1.84653 11.9621 1.72346 11.839C1.60039 11.716 1.53125 11.549 1.53125 11.375V7.875C1.53125 7.70095 1.60039 7.53403 1.72346 7.41096C1.84653 7.28789 2.01345 7.21875 2.1875 7.21875C2.36155 7.21875 2.52847 7.28789 2.65154 7.41096C2.77461 7.53403 2.84375 7.70095 2.84375 7.875V10.7188H11.1562V7.875C11.1562 7.70095 11.2254 7.53403 11.3485 7.41096C11.4715 7.28789 11.6385 7.21875 11.8125 7.21875C11.9865 7.21875 12.1535 7.28789 12.2765 7.41096C12.3996 7.53403 12.4688 7.70095 12.4688 7.875ZM6.5357 8.3393C6.59667 8.40048 6.66912 8.44902 6.74888 8.48214C6.82865 8.51526 6.91417 8.53231 7.00055 8.53231C7.08692 8.53231 7.17244 8.51526 7.25221 8.48214C7.33198 8.44902 7.40442 8.40048 7.46539 8.3393L9.65289 6.1518C9.77617 6.02851 9.84543 5.8613 9.84543 5.68695C9.84543 5.5126 9.77617 5.34539 9.65289 5.22211C9.52961 5.09883 9.3624 5.02956 9.18805 5.02956C9.0137 5.02956 8.84649 5.09883 8.7232 5.22211L7.65625 6.28906V1.75C7.65625 1.57595 7.58711 1.40903 7.46404 1.28596C7.34097 1.16289 7.17405 1.09375 7 1.09375C6.82595 1.09375 6.65903 1.16289 6.53596 1.28596C6.41289 1.40903 6.34375 1.57595 6.34375 1.75V6.28906L5.2768 5.2232C5.21575 5.16216 5.14328 5.11374 5.06352 5.0807C4.98377 5.04766 4.89828 5.03066 4.81195 5.03066C4.6376 5.03066 4.47039 5.09992 4.34711 5.2232C4.28607 5.28425 4.23764 5.35672 4.20461 5.43648C4.17157 5.51623 4.15456 5.60172 4.15456 5.68805C4.15456 5.8624 4.22383 6.02961 4.34711 6.15289L6.5357 8.3393Z"/>
</svg>
