<svg width="13" height="12" viewBox="0 0 13 12" fill="none" xmlns="http://www.w3.org/2000/svg">
<path d="M7.25 8.4375C7.25 8.58584 7.20602 8.73084 7.1236 8.85418C7.04119 8.97751 6.92406 9.07364 6.78701 9.13041C6.64997 9.18718 6.49917 9.20203 6.35368 9.17309C6.2082 9.14415 6.07456 9.07272 5.96967 8.96783C5.86478 8.86294 5.79335 8.7293 5.76441 8.58382C5.73547 8.43833 5.75033 8.28753 5.80709 8.15049C5.86386 8.01344 5.95999 7.89631 6.08332 7.8139C6.20666 7.73149 6.35167 7.6875 6.5 7.6875C6.69891 7.6875 6.88968 7.76652 7.03033 7.90717C7.17098 8.04782 7.25 8.23859 7.25 8.4375ZM11.5625 6C11.5625 7.00127 11.2656 7.98005 10.7093 8.81257C10.153 9.6451 9.36239 10.294 8.43734 10.6771C7.51229 11.0603 6.49439 11.1606 5.51236 10.9652C4.53033 10.7699 3.62828 10.2877 2.92027 9.57973C2.21227 8.87173 1.73011 7.96967 1.53478 6.98764C1.33944 6.00562 1.43969 4.98772 1.82286 4.06267C2.20603 3.13761 2.8549 2.34696 3.68743 1.79069C4.51995 1.23441 5.49873 0.9375 6.5 0.9375C7.8422 0.938989 9.12901 1.47284 10.0781 2.42192C11.0272 3.371 11.561 4.6578 11.5625 6ZM10.4375 6C10.4375 5.22124 10.2066 4.45996 9.77391 3.81244C9.34126 3.16492 8.7263 2.66024 8.00682 2.36222C7.28733 2.0642 6.49563 1.98623 5.73183 2.13816C4.96803 2.29009 4.26644 2.6651 3.71577 3.21577C3.1651 3.76644 2.79009 4.46803 2.63816 5.23183C2.48623 5.99563 2.56421 6.78733 2.86223 7.50682C3.16025 8.2263 3.66493 8.84125 4.31244 9.27391C4.95996 9.70657 5.72124 9.9375 6.5 9.9375C7.54395 9.93638 8.54482 9.52118 9.283 8.783C10.0212 8.04482 10.4364 7.04395 10.4375 6ZM6.5 3C5.36281 3 4.4375 3.84094 4.4375 4.875V5.0625C4.4375 5.21168 4.49677 5.35476 4.60225 5.46025C4.70774 5.56574 4.85082 5.625 5 5.625C5.14919 5.625 5.29226 5.56574 5.39775 5.46025C5.50324 5.35476 5.5625 5.21168 5.5625 5.0625V4.875C5.5625 4.46156 5.98438 4.125 6.5 4.125C7.01563 4.125 7.4375 4.46156 7.4375 4.875C7.4375 5.28844 7.01563 5.625 6.5 5.625C6.35082 5.625 6.20774 5.68426 6.10225 5.78975C5.99677 5.89524 5.9375 6.03832 5.9375 6.1875V6.5625C5.93717 6.70147 5.98829 6.83565 6.08101 6.93916C6.17374 7.04268 6.3015 7.10821 6.43967 7.12311C6.57784 7.13802 6.71663 7.10125 6.8293 7.01989C6.94197 6.93853 7.02053 6.81835 7.04985 6.6825C7.92078 6.46312 8.5625 5.73609 8.5625 4.875C8.5625 3.84094 7.63719 3 6.5 3Z" fill="#C21549"/>
</svg>
