<svg width="14" height="13" viewBox="0 0 14 13" fill="none" xmlns="http://www.w3.org/2000/svg">
<path d="M13.25 7.99998V12C13.25 12.1989 13.171 12.3897 13.0303 12.5303C12.8897 12.671 12.6989 12.75 12.5 12.75H1.5C1.30109 12.75 1.11032 12.671 0.96967 12.5303C0.829018 12.3897 0.75 12.1989 0.75 12V7.99998C0.75 7.80107 0.829018 7.6103 0.96967 7.46965C1.11032 7.329 1.30109 7.24998 1.5 7.24998C1.69891 7.24998 1.88968 7.329 2.03033 7.46965C2.17098 7.6103 2.25 7.80107 2.25 7.99998V11.25H11.75V7.99998C11.75 7.80107 11.829 7.6103 11.9697 7.46965C12.1103 7.329 12.3011 7.24998 12.5 7.24998C12.6989 7.24998 12.8897 7.329 13.0303 7.46965C13.171 7.6103 13.25 7.80107 13.25 7.99998ZM5.03062 4.03061L6.25 2.81248V7.99998C6.25 8.19889 6.32902 8.38966 6.46967 8.53031C6.61032 8.67096 6.80109 8.74998 7 8.74998C7.19891 8.74998 7.38968 8.67096 7.53033 8.53031C7.67098 8.38966 7.75 8.19889 7.75 7.99998V2.81248L8.96937 4.03248C9.03914 4.10225 9.12196 4.15759 9.21311 4.19534C9.30427 4.2331 9.40196 4.25253 9.50062 4.25253C9.59929 4.25253 9.69698 4.2331 9.78814 4.19534C9.87929 4.15759 9.96211 4.10225 10.0319 4.03248C10.1016 3.96272 10.157 3.87989 10.1947 3.78874C10.2325 3.69759 10.2519 3.59989 10.2519 3.50123C10.2519 3.40257 10.2325 3.30487 10.1947 3.21372C10.157 3.12257 10.1016 3.03975 10.0319 2.96998L7.53187 0.469981C7.4622 0.400061 7.3794 0.344583 7.28824 0.306729C7.19707 0.268875 7.09934 0.24939 7.00062 0.24939C6.90191 0.24939 6.80418 0.268875 6.71301 0.306729C6.62185 0.344583 6.53905 0.400061 6.46938 0.469981L3.96938 2.96998C3.89961 3.03975 3.84427 3.12257 3.80651 3.21372C3.76876 3.30487 3.74932 3.40257 3.74932 3.50123C3.74932 3.70049 3.82848 3.89158 3.96938 4.03248C4.11027 4.17338 4.30137 4.25253 4.50063 4.25253C4.69988 4.25253 4.89098 4.17338 5.03188 4.03248L5.03062 4.03061Z" fill="white"/>
</svg>
